<?xml version="1.0" encoding="utf-8"?>
<!-- Generator: Adobe Illustrator 16.0.4, SVG Export Plug-In . SVG Version: 6.00 Build 0)  -->
<!DOCTYPE svg PUBLIC "-//W3C//DTD SVG 1.1//EN" "http://www.w3.org/Graphics/SVG/1.1/DTD/svg11.dtd">
<svg version="1.1" id="圖層_1" xmlns="http://www.w3.org/2000/svg" xmlns:xlink="http://www.w3.org/1999/xlink" x="0px" y="0px"
	 width="595.279px" height="841.891px" viewBox="0 0 595.279 841.891" enable-background="new 0 0 595.279 841.891"
	 xml:space="preserve">
<g>
	<g>
		<g>
			<path fill="#232931" d="M506.236,212.045c-9.277-9.274-24.306-9.279-33.574-0.008L90.85,593.927
				c-9.264,9.267-9.258,24.296,0.018,33.57c9.262,9.261,24.29,9.263,33.555-0.004l381.812-381.889
				C515.503,236.333,515.497,221.305,506.236,212.045z"/>
		</g>
	</g>
	<g>
		<g>
			<path fill="#232931" d="M506.264,593.888L124.378,212.081c-9.27-9.268-24.303-9.268-33.567,0
				c-9.261,9.264-9.254,24.292,0.015,33.559l381.885,381.808c9.277,9.274,24.29,9.263,33.552-0.001
				C515.529,618.18,515.54,603.161,506.264,593.888z"/>
		</g>
	</g>
</g>
</svg>
