<svg id="Capa_1" enable-background="new 0 0 512 512" height="512" viewBox="0 0 512 512" width="512" xmlns="http://www.w3.org/2000/svg"><path d="m495.057 250.541v-75.176h-119.251v136.905c-15.705 4.252-28.54 15.01-35 28.952l-25.038-11.975c15.621-19.084 25.007-43.46 25.007-69.989v-90.116c0-29.56-11.512-57.351-32.416-78.254-5.761-5.761-12.05-10.808-18.756-15.099v-16.29c0-15.891-6.189-30.832-17.426-42.071-11.091-11.092-25.817-17.274-41.483-17.421-.39-.009-.786-.009-1.177 0-32.498.316-58.91 26.968-58.91 59.492v16.288c-6.807 4.356-13.183 9.491-19.014 15.361-20.738 20.873-32.159 48.572-32.159 77.995v90.116c0 26.529 9.387 50.905 25.008 69.99l-79.788 38.161c-28.987 13.621-47.712 43.485-47.712 76.099v68.491l427.321-.386v-105.858c.647-3.161.997-6.421.997-9.758v-34.316c0-13.963-5.825-27.022-16.401-36.77-6.569-6.056-14.507-10.356-23.136-12.667v-31.065zm-89.332-45.257h59.413v23.889l-59.413 20.377zm-256.372 3.41c24.016-3.226 46.196-14.196 63.553-31.667 6.745-6.789 12.497-14.304 17.199-22.362 4.701 8.058 10.454 15.573 17.199 22.362 17.357 17.471 39.537 28.441 63.553 31.667v50.565c0 44.526-36.225 80.751-80.751 80.751-44.527 0-80.752-36.225-80.752-80.751v-50.565zm80.752 161.235c22.879 0 44.158-6.979 61.822-18.919l12.026 5.751-73.077 66.444-74.436-66.531 11.844-5.664c17.663 11.94 38.942 18.919 61.821 18.919zm102.991.771 3.173 1.518v23.781c0 2.71.227 5.37.657 7.967v77.827l-40.463.037-43.161-38.578zm33.749 71.475c7.226 3.344 15.343 5.229 23.92 5.229 8.427 0 16.412-1.815 23.543-5.05.022.597.038 1.194.038 1.792v37.576l-47.5.043v-39.59zm-55.989-273.032v9.216c-37.365-7.056-65.792-40.019-65.792-79.326v-9.241c15.867 2.956 30.483 10.596 42.139 22.252 15.253 15.253 23.653 35.531 23.653 57.099zm-110.33-109.644c0-16.197 13.174-29.464 29.366-29.575l.206-.001.226.001c7.813.051 15.163 3.126 20.696 8.66 5.587 5.587 8.665 13.016 8.665 20.916v2.961c-9.211-2.539-18.806-3.894-28.6-3.975-.656-.019-1.312-.019-1.965 0-9.795.085-19.387 1.441-28.593 3.978v-2.965zm14.619 30.318v9.216c0 39.306-28.427 72.269-65.792 79.326v-9.216c0-39.307 28.427-72.27 65.792-79.326zm-168.283 353.69c0-20.758 12.277-40.464 30.55-49.036l49.782-23.809 124.42 111.207-204.751.185v-38.547zm368.481-81.824v34.316c0 11.848-11.026 21.487-24.578 21.487s-24.577-9.639-24.577-21.487v-34.316c0-11.761 10.942-21.399 24.391-21.484l.182-.001.195.001c6.715.04 12.975 2.424 17.627 6.712 4.359 4.018 6.76 9.265 6.76 14.772z"/></svg>