<svg id="圖層_1" data-name="圖層 1" xmlns="http://www.w3.org/2000/svg" viewBox="0 0 148 131.67"><defs><style>.cls-1{fill:#232931;}</style></defs><title>heart-o</title><path class="cls-1" d="M979.49,176.79a8.69,8.69,0,0,1-5.72-2.15c-6-5.23-11.74-10.14-16.83-14.48l0,0c-14.9-12.7-27.78-23.68-36.74-34.49-10-12.09-14.68-23.54-14.68-36.06,0-12.16,4.17-23.38,11.74-31.59a39.79,39.79,0,0,1,29.6-12.88,37.26,37.26,0,0,1,23.26,8,47.69,47.69,0,0,1,9.4,9.82,47.65,47.65,0,0,1,9.4-9.82,37.25,37.25,0,0,1,23.25-8A39.8,39.8,0,0,1,1041.75,58c7.57,8.21,11.74,19.43,11.74,31.59,0,12.51-4.66,24-14.68,36.05-9,10.81-21.83,21.79-36.74,34.49-5.09,4.34-10.87,9.26-16.86,14.5A8.68,8.68,0,0,1,979.49,176.79Zm-32.66-123a31.22,31.22,0,0,0-23.23,10.09c-6.09,6.6-9.45,15.74-9.45,25.72,0,10.52,3.92,19.94,12.68,30.53,8.48,10.23,21.09,21,35.7,33.42l0,0c5.11,4.35,10.89,9.28,16.91,14.55,6.06-5.28,11.86-10.22,17-14.57,14.6-12.45,27.21-23.19,35.69-33.42,8.77-10.59,12.68-20,12.68-30.53,0-10-3.36-19.11-9.45-25.72a31.21,31.21,0,0,0-23.23-10.09,28.72,28.72,0,0,0-18,6.21,42,42,0,0,0-10,11.57,5.47,5.47,0,0,1-9.4,0,42,42,0,0,0-10-11.57A28.74,28.74,0,0,0,946.84,53.79Z" transform="translate(-905.49 -45.12)"/></svg>
