<svg id="plus" data-name="plus" xmlns="http://www.w3.org/2000/svg" viewBox="0 0 47.28 47.28"><defs><style>#plus{fill:232931;}</style></defs><title>plus</title><path class="plus" d="M383.19-349.75a1.91,1.91,0,0,0-1.91,1.91v43.46a1.91,1.91,0,0,0,1.91,1.91,1.91,1.91,0,0,0,1.91-1.91v-43.46A1.91,1.91,0,0,0,383.19-349.75Z" transform="translate(-359.55 349.75)"/><path  style="#ffb400;" d="M404.92-328H361.46a1.91,1.91,0,0,0-1.91,1.91,1.91,1.91,0,0,0,1.91,1.91h43.46a1.91,1.91,0,0,0,1.91-1.91A1.91,1.91,0,0,0,404.92-328Z" transform="translate(-359.55 349.75)"/></svg>
