<?xml version="1.0" encoding="utf-8"?>
<!-- Generator: Adobe Illustrator 16.0.4, SVG Export Plug-In . SVG Version: 6.00 Build 0)  -->
<!DOCTYPE svg PUBLIC "-//W3C//DTD SVG 1.1//EN" "http://www.w3.org/Graphics/SVG/1.1/DTD/svg11.dtd">
<svg version="1.1" id="圖層_1" xmlns="http://www.w3.org/2000/svg" xmlns:xlink="http://www.w3.org/1999/xlink" x="0px" y="0px"
	 width="595.279px" height="841.891px" viewBox="0 0 595.279 841.891" enable-background="new 0 0 595.279 841.891"
	 xml:space="preserve">
<g>
	
		<line fill="none" stroke="#FFFFFF" stroke-width="5" stroke-miterlimit="10" x1="342.845" y1="390.959" x2="482.511" y2="390.959"/>
	<g>
		<g>
			<path fill="#FFFFFF" d="M77.209,173.637l-6.002,0.274c-0.23-6.931-1.047-11.836-2.45-14.72c-1.405-2.883-3.439-4.324-6.107-4.324
				h-4.691v47.196c0,2.823,2.069,4.233,6.209,4.233v7.544H37.739v-7.544c4.095,0,6.143-1.41,6.143-4.233v-47.196H39.12
				c-2.668,0-4.692,1.441-6.072,4.324c-1.379,2.884-2.208,7.789-2.485,14.72l-6.002-0.274v-28.153h52.648V173.637z"/>
			<path fill="#FFFFFF" d="M140.759,153.027c-4.138,0-6.209,1.412-6.209,4.233v44.804c0,2.823,2.071,4.233,6.209,4.233v7.544H115.16
				v-7.544c3.542,0,5.313-1.41,5.313-4.233v-19.687h-18.08v19.687c0,2.823,1.795,4.233,5.382,4.233v7.544H82.247v-7.544
				c4.092,0,6.14-1.41,6.14-4.233V157.26c0-2.821-2.048-4.233-6.14-4.233v-7.543h25.529v7.543c-3.587,0-5.382,1.412-5.382,4.233
				v16.285h18.08V157.26c0-2.821-1.771-4.233-5.313-4.233v-7.543h25.599V153.027z"/>
			<path fill="#FFFFFF" d="M193.547,166.184l-6.899,0.46c-0.278-7.85-2.855-11.776-7.73-11.776h-12.973v19.229h5.246
				c2.161,0,3.448-3.435,3.863-10.305h6.072l-1.035,28.706h-5.936c-0.506-7.115-1.654-10.672-3.448-10.672h-4.762v22.633h10.49
				c7.267,0,11.178-5.827,11.729-17.48l7.038,0.643l-1.656,26.221h-47.749v-7.544c4.092,0,6.14-1.41,6.14-4.233V157.26
				c0-2.821-2.047-4.233-6.14-4.233v-7.543h47.749V166.184z"/>
			<path fill="#FFFFFF" d="M77.209,265.64l-6.002,0.274c-0.23-6.93-1.047-11.835-2.45-14.72c-1.405-2.883-3.439-4.324-6.107-4.324
				h-4.691v47.196c0,2.823,2.069,4.233,6.209,4.233v7.544H37.739v-7.544c4.095,0,6.143-1.41,6.143-4.233V246.87H39.12
				c-2.668,0-4.692,1.441-6.072,4.324c-1.379,2.884-2.208,7.79-2.485,14.72l-6.002-0.274v-28.153h52.648V265.64z"/>
			<path fill="#FFFFFF" d="M139.863,293.883c0,1.779-0.207,3.447-0.62,4.999c-0.416,1.553-1.047,2.892-1.899,4.012
				c-0.85,1.123-1.955,2.003-3.312,2.639c-1.356,0.636-2.979,0.955-4.865,0.955c-2.207,0-4.082-0.367-5.622-1.103
				c-1.542-0.736-2.795-1.749-3.761-3.037c-0.966-1.287-1.679-2.79-2.139-4.507c-0.46-1.715-0.692-3.557-0.692-5.52v-5.982
				c0-2.391-0.103-4.383-0.309-5.979c-0.208-1.594-0.564-2.867-1.07-3.818s-1.173-1.64-2.001-2.071
				c-0.827-0.429-1.886-0.643-3.172-0.643h-8.006v20.239c0,2.823,2.554,4.233,7.661,4.233v7.544H82.247v-7.452
				c4.092,0,6.14-1.414,6.14-4.241V249.27c0-2.827-2.048-4.241-6.14-4.241v-7.542h32.774c2.254,0,4.463,0.199,6.625,0.597
				c2.162,0.399,4.082,1.211,5.763,2.438c1.677,1.227,3.023,2.96,4.036,5.199c1.01,2.239,1.517,5.197,1.517,8.877
				c0,2.392-0.274,4.494-0.827,6.302c-0.553,1.811-1.275,3.358-2.174,4.646c-0.898,1.289-1.922,2.333-3.07,3.128
				c-1.151,0.798-2.345,1.379-3.59,1.749c1.245,0.493,2.334,1.153,3.279,1.983c0.941,0.833,1.749,1.894,2.415,3.187
				c0.667,1.292,1.173,2.875,1.517,4.752c0.348,1.878,0.518,4.077,0.518,6.6v7.386c0,1.354,0.209,2.354,0.622,3
				c0.414,0.646,0.943,0.968,1.588,0.968c0.688,0,1.241-0.322,1.654-0.966c0.415-0.644,0.622-1.64,0.622-2.991v-4.415h4.347V293.883
				z M102.394,247.33v18.769h8.833c2.577,0,4.451-0.751,5.624-2.254c1.173-1.503,1.76-4.154,1.76-7.958
				c0-2.821-0.576-4.954-1.725-6.395c-1.15-1.441-3.035-2.162-5.659-2.162H102.394z"/>
			<path fill="#FFFFFF" d="M171.258,245.029c-4.094,0-6.14,1.412-6.14,4.233v44.804c0,2.823,2.045,4.233,6.14,4.233v7.544H144.9
				v-7.544c4.14,0,6.211-1.41,6.211-4.233v-44.804c0-2.821-2.071-4.233-6.211-4.233v-7.542h26.358V245.029z"/>
			<path fill="#FFFFFF" d="M206.518,237.487c2.989,0,5.668,0.274,8.039,0.827c2.368,0.553,4.37,1.581,6.002,3.082
				c1.632,1.505,2.875,3.543,3.727,6.119c0.85,2.577,1.275,5.888,1.275,9.936c0,4.05-0.425,7.485-1.275,10.305
				c-0.852,2.821-2.095,5.106-3.727,6.855c-1.633,1.746-3.634,3.004-6.002,3.771c-2.371,0.768-5.05,1.15-8.039,1.15h-9.247v14.536
				c0,2.823,2.552,4.233,7.661,4.233v7.544h-27.809v-7.544c4.094,0,6.14-1.41,6.14-4.233v-44.804c0-2.821-2.045-4.233-6.14-4.233
				v-7.542H206.518z M197.271,247.33v22.45h6.003c3.357,0,5.703-0.951,7.04-2.853c1.333-1.899,2-5.061,2-9.477
				c0-3.188-0.667-5.672-2-7.452c-1.337-1.777-3.683-2.668-7.04-2.668H197.271z"/>
			<path fill="#FFFFFF" d="M77.209,357.643l-6.002,0.273c-0.23-6.93-1.047-11.835-2.45-14.719c-1.405-2.883-3.439-4.324-6.107-4.324
				h-4.691v47.196c0,2.822,2.069,4.233,6.209,4.233v7.544H37.739v-7.544c4.095,0,6.143-1.411,6.143-4.233v-47.196H39.12
				c-2.668,0-4.692,1.441-6.072,4.324c-1.379,2.884-2.208,7.789-2.485,14.719l-6.002-0.273v-28.153h52.648V357.643z"/>
			<path fill="#FFFFFF" d="M108.882,328.018c3.725,0,7.164,0.597,10.316,1.793c3.149,1.195,5.864,3.174,8.142,5.934
				c2.275,2.761,4.047,6.427,5.312,10.993c1.264,4.572,1.897,10.199,1.897,16.885c0,5.52-0.541,10.488-1.621,14.904
				c-1.082,4.414-2.726,8.156-4.935,11.224c-2.208,3.067-4.979,5.428-8.313,7.084c-3.339,1.655-7.28,2.484-11.835,2.484
				c-3.725,0-7.152-0.583-10.282-1.748c-3.128-1.165-5.831-3.082-8.107-5.75c-2.278-2.667-4.049-6.193-5.313-10.581
				c-1.267-4.384-1.897-9.767-1.897-16.146c0-5.765,0.493-10.948,1.484-15.549c0.987-4.6,2.552-8.495,4.691-11.685
				c2.138-3.188,4.888-5.625,8.245-7.314C100.026,328.859,104.096,328.018,108.882,328.018z M109.226,337.768
				c-4.417,0-7.693,1.826-9.832,5.476c-2.139,3.649-3.209,9.522-3.209,17.618c0,5.888,0.276,10.688,0.827,14.398
				c0.553,3.712,1.335,6.609,2.347,8.693c1.011,2.087,2.243,3.513,3.692,4.28c1.45,0.767,3.047,1.149,4.796,1.149
				c2.299,0,4.266-0.444,5.9-1.335c1.631-0.887,2.967-2.33,4.003-4.324c1.034-1.991,1.793-4.584,2.276-7.774
				c0.483-3.188,0.725-7.084,0.725-11.685c0-5.336-0.276-9.706-0.829-13.11c-0.552-3.404-1.333-6.102-2.345-8.095
				c-1.013-1.993-2.231-3.373-3.658-4.141C112.49,338.152,110.927,337.768,109.226,337.768z"/>
		</g>
		<text transform="matrix(0.7598 0 0 1 184.3494 339.8877)" fill="#FFFFFF" font-family="'BookAntiqua-Bold'" font-size="273.4937"> [    ]</text>
		<g>
			<g>
				<path fill="#FFFFFF" d="M407.853,157.462c-37.889-1.259-69.752,28.566-70.994,66.464c-0.373,11.383,2.104,22.759,7.184,32.94
					l53.349,104.458c0.708,1.395,2.122,2.292,3.685,2.342c1.568,0.051,3.035-0.746,3.837-2.099l60.117-100.756
					c5.721-9.795,8.922-20.989,9.302-32.357C475.579,190.542,445.758,158.695,407.853,157.462z M404.466,260.556
					c-18.955-0.629-33.86-16.545-33.236-35.498c0.624-18.945,16.544-33.855,35.501-33.237c18.942,0.618,33.859,16.557,33.235,35.498
					C439.349,246.264,423.416,261.187,404.466,260.556z"/>
			</g>
		</g>
	</g>
</g>
</svg>
